# xmcd
#
# Track frame offsets:
#	150
#	21433
#	38325
#	74068
#	93296
#	110600
#	125736
#	139555
#	152158
#	175452
#	191274
#	207617
#	229061
#	244795
#	267245
#	295856
#	322555
#
# Disc length: 4602 seconds
#
# Revision: 1
# Processed by: cddbd v1.5.2PL0 Copyright (c) Steve Scherf et al.
# Submitted via: audiograbber 1.83.01
#
DISCID=f311f811
DTITLE=Lynyrd Skynyrd - Legends Series Vol 204
DYEAR=1900
DGENRE=
TTITLE0=Sweet Home Alabama
TTITLE1=Whats Your Name
TTITLE2=Tuesdays Gone
TTITLE3=Gimme Three Steps
TTITLE4=I Aint The One
TTITLE5=Poison Whiskey
TTITLE6=Double Trouble
TTITLE7=You Got That Right
TTITLE8=Call Me The Breeze
TTITLE9=Dont Ask Me No Questions
TTITLE10=Swamp Music
TTITLE11=Working For MCA
TTITLE12=I Know A Little
TTITLE13=Ballad Of Curtis Loew
TTITLE14=Simple Man
TTITLE15=Freebird
TTITLE16=Saturday Night Special
EXTD=
EXTT0=
EXTT1=
EXTT2=
EXTT3=
EXTT4=
EXTT5=
EXTT6=
EXTT7=
EXTT8=
EXTT9=
EXTT10=
EXTT11=
EXTT12=
EXTT13=
EXTT14=
EXTT15=
EXTT16=
PLAYORDER=
